# xmcd
#
# Track frame offsets:
#	150
#	13388
#	25562
#	38439
#	51073
#	64973
#	77828
#	87603
#	103487
#	114002
#	126687
#	137899
#	149387
#	160092
#	172645
#	184687
#	194348
#	204207
#	214981
#	225884
#	240925
#	254164
#	267756
#	279354
#	292129
#
# Disc length: 4112 seconds
#
# Revision: 1
# Processed by: cddbd v1.5.2PL0 Copyright (c) Steve Scherf et al.
# Submitted via: audiograbber 1.83.01
#
DISCID=68100e19
DTITLE=Howlin' Wolf - Portrait In Blues - CD 1
DYEAR=1989
DGENRE=Blues
TTITLE0=Moanin' At Midnight
TTITLE1=How Many More Years
TTITLE2=Evil (Is Going On)
TTITLE3=Fourty Four
TTITLE4=Smokestack Lightnin'
TTITLE5=I Asked For Water (She Gave Me Gasoline)
TTITLE6=The Natchez Burnin'
TTITLE7=Blue Bird
TTITLE8=Who's Been Talking
TTITLE9=Walk To Camp Hall
TTITLE10=Sittin' On Top Of The World
TTITLE11=Howling For My Darling
TTITLE12=Wang Dang Doodle
TTITLE13=Back Door Man
TTITLE14=Spoonful
TTITLE15=Down In The Bottom
TTITLE16=Shake For Me
TTITLE17=The Red Rooster
TTITLE18=You'll Be Mine
TTITLE19=Going Down Slow
TTITLE20=Tail Dragger
TTITLE21=Three Houndred Pounds Of Joy
TTITLE22=Built For Comfort
TTITLE23=Killing Floor
TTITLE24=Rockin' Daddy
EXTD=
EXTT0=
EXTT1=
EXTT2=
EXTT3=
EXTT4=
EXTT5=
EXTT6=
EXTT7=
EXTT8=
EXTT9=
EXTT10=
EXTT11=
EXTT12=
EXTT13=
EXTT14=
EXTT15=
EXTT16=
EXTT17=
EXTT18=
EXTT19=
EXTT20=
EXTT21=
EXTT22=
EXTT23=
EXTT24=
PLAYORDER=
